<?xml version="1.0" encoding="iso-8859-1"?>
<!-- Generator: Adobe Illustrator 17.1.0, SVG Export Plug-In . SVG Version: 6.00 Build 0)  -->
<!DOCTYPE svg PUBLIC "-//W3C//DTD SVG 1.1//EN" "http://www.w3.org/Graphics/SVG/1.1/DTD/svg11.dtd">
<svg version="1.1" id="Capa_1" xmlns="http://www.w3.org/2000/svg" xmlns:xlink="http://www.w3.org/1999/xlink" x="0px" y="0px"
	 viewBox="0 0 294.046 294.046" style="enable-background:new 0 0 294.046 294.046;" xml:space="preserve">
<g>
	<path style="fill:#000002;" d="M271.685,89.252c-2.773-3.079-7.517-3.322-10.592-0.549c-3.077,2.773-3.322,7.516-0.549,10.593
		c11.239,12.466,18.501,32.321,18.501,50.584c0,18.431-7.397,38.44-18.846,50.976c-2.793,3.059-2.578,7.803,0.48,10.596
		c1.438,1.313,3.25,1.962,5.056,1.962c2.033,0,4.061-0.822,5.54-2.442c13.832-15.146,22.77-39.125,22.77-61.091
		C294.046,128.117,285.268,104.319,271.685,89.252z"/>
	<path style="fill:#000002;" d="M251.508,109.24c-2.771-3.08-7.516-3.324-10.592-0.552c-3.078,2.771-3.325,7.514-0.553,10.591
		c6.153,6.831,10.62,19.736,10.62,30.686c0,11.042-4.551,24.039-10.82,30.902c-2.794,3.059-2.579,7.803,0.479,10.596
		c1.438,1.314,3.25,1.963,5.057,1.963c2.033,0,4.06-0.821,5.539-2.441c8.82-9.655,14.746-26.14,14.746-41.02
		C265.983,137.692,261.508,120.339,251.508,109.24z"/>
	<path style="fill:#000002;" d="M15,150.306c0-18.431,7.397-38.439,18.846-50.975c2.793-3.059,2.578-7.802-0.48-10.596
		c-3.057-2.792-7.802-2.579-10.596,0.48C8.938,104.361,0,128.34,0,150.306c0,21.762,8.777,45.561,22.36,60.629
		c1.481,1.643,3.523,2.479,5.573,2.479c1.79,0,3.585-0.637,5.019-1.93c3.077-2.773,3.323-7.516,0.549-10.592
		C22.262,188.423,15,168.568,15,150.306z"/>
	<path style="fill:#000002;" d="M53.404,108.724c-3.058-2.795-7.801-2.58-10.596,0.479c-8.82,9.654-14.746,26.139-14.746,41.02
		c0,12.273,4.476,29.625,14.476,40.725c1.48,1.644,3.523,2.48,5.574,2.48c1.789,0,3.584-0.637,5.018-1.928
		c3.078-2.772,3.325-7.516,0.552-10.593c-6.153-6.83-10.62-19.734-10.62-30.684c0-11.043,4.551-24.039,10.82-30.902
		C56.677,116.262,56.462,111.518,53.404,108.724z"/>
	<path style="fill:#000002;" d="M204.768,25.399H89.276c-12.407,0-22.5,10.094-22.5,22.5v198.248c0,12.406,10.093,22.5,22.5,22.5
		h115.492c12.406,0,22.5-10.094,22.5-22.5V47.899C227.268,35.493,217.175,25.399,204.768,25.399z M89.276,40.399h115.492
		c4.136,0,7.5,3.364,7.5,7.5v155.932H81.776V47.899C81.776,43.763,85.141,40.399,89.276,40.399z M204.768,253.647H89.276
		c-4.136,0-7.5-3.364-7.5-7.5v-27.316h130.492v27.316C212.268,250.283,208.904,253.647,204.768,253.647z"/>
	<path style="fill:#000002;" d="M155.273,228.913h-16.5c-4.142,0-7.5,3.357-7.5,7.5c0,4.143,3.358,7.5,7.5,7.5h16.5
		c4.142,0,7.5-3.357,7.5-7.5C162.773,232.27,159.415,228.913,155.273,228.913z"/>
</g>
<g>
</g>
<g>
</g>
<g>
</g>
<g>
</g>
<g>
</g>
<g>
</g>
<g>
</g>
<g>
</g>
<g>
</g>
<g>
</g>
<g>
</g>
<g>
</g>
<g>
</g>
<g>
</g>
<g>
</g>
</svg>
